<svg id="visual" viewBox="0 0 960 540" width="960" height="540" xmlns="http://www.w3.org/2000/svg" xmlns:xlink="http://www.w3.org/1999/xlink" version="1.1"><rect x="0" y="0" width="960" height="540" fill="#2c83c5"></rect><path d="M0 369L17.8 361.2C35.7 353.3 71.3 337.7 106.8 331.2C142.3 324.7 177.7 327.3 213.2 333.7C248.7 340 284.3 350 320 345.8C355.7 341.7 391.3 323.3 426.8 316.5C462.3 309.7 497.7 314.3 533.2 315.8C568.7 317.3 604.3 315.7 640 323.7C675.7 331.7 711.3 349.3 746.8 350.3C782.3 351.3 817.7 335.7 853.2 331C888.7 326.3 924.3 332.7 942.2 335.8L960 339L960 541L942.2 541C924.3 541 888.7 541 853.2 541C817.7 541 782.3 541 746.8 541C711.3 541 675.7 541 640 541C604.3 541 568.7 541 533.2 541C497.7 541 462.3 541 426.8 541C391.3 541 355.7 541 320 541C284.3 541 248.7 541 213.2 541C177.7 541 142.3 541 106.8 541C71.3 541 35.7 541 17.8 541L0 541Z" fill="#fcaf3c"></path><path d="M0 333L17.8 342.2C35.7 351.3 71.3 369.7 106.8 379.3C142.3 389 177.7 390 213.2 382.5C248.7 375 284.3 359 320 349C355.7 339 391.3 335 426.8 344.3C462.3 353.7 497.7 376.3 533.2 386.7C568.7 397 604.3 395 640 391.5C675.7 388 711.3 383 746.8 379.7C782.3 376.3 817.7 374.7 853.2 377.8C888.7 381 924.3 389 942.2 393L960 397L960 541L942.2 541C924.3 541 888.7 541 853.2 541C817.7 541 782.3 541 746.8 541C711.3 541 675.7 541 640 541C604.3 541 568.7 541 533.2 541C497.7 541 462.3 541 426.8 541C391.3 541 355.7 541 320 541C284.3 541 248.7 541 213.2 541C177.7 541 142.3 541 106.8 541C71.3 541 35.7 541 17.8 541L0 541Z" fill="#c96c2b"></path><path d="M0 424L17.8 416.8C35.7 409.7 71.3 395.3 106.8 394.5C142.3 393.7 177.7 406.3 213.2 405.8C248.7 405.3 284.3 391.7 320 381C355.7 370.3 391.3 362.7 426.8 370.2C462.3 377.7 497.7 400.3 533.2 409.3C568.7 418.3 604.3 413.7 640 411C675.7 408.3 711.3 407.7 746.8 399C782.3 390.3 817.7 373.7 853.2 370.7C888.7 367.7 924.3 378.3 942.2 383.7L960 389L960 541L942.2 541C924.3 541 888.7 541 853.2 541C817.7 541 782.3 541 746.8 541C711.3 541 675.7 541 640 541C604.3 541 568.7 541 533.2 541C497.7 541 462.3 541 426.8 541C391.3 541 355.7 541 320 541C284.3 541 248.7 541 213.2 541C177.7 541 142.3 541 106.8 541C71.3 541 35.7 541 17.8 541L0 541Z" fill="#8e311c"></path><path d="M0 412L17.8 412.2C35.7 412.3 71.3 412.7 106.8 412.2C142.3 411.7 177.7 410.3 213.2 414.8C248.7 419.3 284.3 429.7 320 432.2C355.7 434.7 391.3 429.3 426.8 430C462.3 430.7 497.7 437.3 533.2 432C568.7 426.7 604.3 409.3 640 407.3C675.7 405.3 711.3 418.7 746.8 426.3C782.3 434 817.7 436 853.2 437.8C888.7 439.7 924.3 441.3 942.2 442.2L960 443L960 541L942.2 541C924.3 541 888.7 541 853.2 541C817.7 541 782.3 541 746.8 541C711.3 541 675.7 541 640 541C604.3 541 568.7 541 533.2 541C497.7 541 462.3 541 426.8 541C391.3 541 355.7 541 320 541C284.3 541 248.7 541 213.2 541C177.7 541 142.3 541 106.8 541C71.3 541 35.7 541 17.8 541L0 541Z" fill="#751916"></path><path d="M0 470L17.8 469.5C35.7 469 71.3 468 106.8 462C142.3 456 177.7 445 213.2 437.5C248.7 430 284.3 426 320 425.3C355.7 424.7 391.3 427.3 426.8 432.5C462.3 437.7 497.7 445.3 533.2 444.3C568.7 443.3 604.3 433.7 640 434C675.7 434.3 711.3 444.7 746.8 447.5C782.3 450.3 817.7 445.7 853.2 443C888.7 440.3 924.3 439.7 942.2 439.3L960 439L960 541L942.2 541C924.3 541 888.7 541 853.2 541C817.7 541 782.3 541 746.8 541C711.3 541 675.7 541 640 541C604.3 541 568.7 541 533.2 541C497.7 541 462.3 541 426.8 541C391.3 541 355.7 541 320 541C284.3 541 248.7 541 213.2 541C177.7 541 142.3 541 106.8 541C71.3 541 35.7 541 17.8 541L0 541Z" fill="#8e311c"></path><path d="M0 467L17.8 466C35.7 465 71.3 463 106.8 466.8C142.3 470.7 177.7 480.3 213.2 480C248.7 479.7 284.3 469.3 320 469.8C355.7 470.3 391.3 481.7 426.8 481C462.3 480.3 497.7 467.7 533.2 467.8C568.7 468 604.3 481 640 484.3C675.7 487.7 711.3 481.3 746.8 476.7C782.3 472 817.7 469 853.2 473.2C888.7 477.3 924.3 488.7 942.2 494.3L960 500L960 541L942.2 541C924.3 541 888.7 541 853.2 541C817.7 541 782.3 541 746.8 541C711.3 541 675.7 541 640 541C604.3 541 568.7 541 533.2 541C497.7 541 462.3 541 426.8 541C391.3 541 355.7 541 320 541C284.3 541 248.7 541 213.2 541C177.7 541 142.3 541 106.8 541C71.3 541 35.7 541 17.8 541L0 541Z" fill="#c96c2b"></path><path d="M0 517L17.8 513.7C35.7 510.3 71.3 503.7 106.8 500C142.3 496.3 177.7 495.7 213.2 493.7C248.7 491.7 284.3 488.3 320 492.3C355.7 496.3 391.3 507.7 426.8 509.7C462.3 511.7 497.7 504.3 533.2 505.2C568.7 506 604.3 515 640 513C675.7 511 711.3 498 746.8 493.5C782.3 489 817.7 493 853.2 494.5C888.7 496 924.3 495 942.2 494.5L960 494L960 541L942.2 541C924.3 541 888.7 541 853.2 541C817.7 541 782.3 541 746.8 541C711.3 541 675.7 541 640 541C604.3 541 568.7 541 533.2 541C497.7 541 462.3 541 426.8 541C391.3 541 355.7 541 320 541C284.3 541 248.7 541 213.2 541C177.7 541 142.3 541 106.8 541C71.3 541 35.7 541 17.8 541L0 541Z" fill="#fcaf3c"></path></svg>